# xmcd CD database file
#
# Track frame offsets:
#	150
#	12512
#	26220
#	40672
#	53172
#	66307
#	78392
#	96620
#	109750
#	124307
#	139017
#	153540
#	166840
#	178410
#	190857
#	201327
#	215152
#	227110
#	239372
#	251215
#
# Disc length: 3531 seconds
#
# Revision: 0
# Processed by: cddbd v1.5.2PL0 Copyright (c) Steve Scherf et al.
# Submitted via: CDex 1.50
#
DISCID=310dc914
DTITLE=Django Reinhardt - 40 titres d'anthologie - CD 1
DYEAR=2003
DGENRE=Jazz
TTITLE0=Limehouse blues
TTITLE1=I'm coming Virginia
TTITLE2=Swing 39
TTITLE3=All of me
TTITLE4=Between the devil and the deep blue sea
TTITLE5=Saint Louis blues
TTITLE6=Boléro
TTITLE7=Carinosa
TTITLE8=Blue moon
TTITLE9=Nuages
TTITLE10=I get a kick out of you
TTITLE11=Japanese sandman
TTITLE12=Tiger rag
TTITLE13=Echoes of France
TTITLE14=Mystery pacific
TTITLE15=Presentation stomp
TTITLE16=Ol' man river
TTITLE17=Sweet chorus
TTITLE18=Oriental shuffle
TTITLE19=Un sourire en chantant
EXTD=YEAR: 2003
EXTT0=
EXTT1=
EXTT2=
EXTT3=
EXTT4=
EXTT5=
EXTT6=
EXTT7=
EXTT8=
EXTT9=
EXTT10=
EXTT11=
EXTT12=
EXTT13=
EXTT14=
EXTT15=
EXTT16=
EXTT17=
EXTT18=
EXTT19=
PLAYORDER=
